<?xml version="1.0" encoding="utf-8"?>
<!-- Generator: Adobe Illustrator 20.1.0, SVG Export Plug-In . SVG Version: 6.00 Build 0)  -->
<svg version="1.1" xmlns="http://www.w3.org/2000/svg" xmlns:xlink="http://www.w3.org/1999/xlink" x="0px" y="0px"
	 viewBox="0 0 612 612" style="enable-background:new 0 0 612 612;" xml:space="preserve">
<style type="text/css">
	.st0{fill:#ADBFD2;}
	.st1{fill:#6E8BAA;}
	.st2{fill:none;stroke:#ADBFD2;stroke-width:20;stroke-linecap:round;stroke-linejoin:round;}
	.st3{fill:none;stroke:#6E8BAA;stroke-width:20;stroke-linecap:round;stroke-linejoin:round;}
</style>
<g id="Layer_2">
	<g id="XMLID_2_">
		<g>
			<path class="st1" d="M582.4,95.3c2.4,3.7,3.9,8.2,3.5,12.9s-2.6,9.4-5.4,12.9c-2.7,3.5-6,5.8-9.4,7.2c-3.5,1.4-7.2,1.8-10.6,0.9
				c-3.4-0.9-6.6-3.2-9.5-5.3c-2.9-2.1-5.5-4.1-8.3-5c-2.8-0.9-5.9-0.7-44.2,42c-1.8-5.2-4.9-7.8-8-10c-1.7-1.2-3.4-2.4-5.1-3.4v0
				c28.3-34.4,32.5-38.5,34.6-41.5c2-3,1.9-4.8,1-7.5c-1-2.8-2.8-6.4-4.7-9.6c-1.9-3.1-3.8-5.6-4.9-9.2c-1.1-3.5-1.3-8.1-0.4-11.4
				c0.9-3.3,2.8-5.4,5.7-7.1c2.8-1.8,6.4-3.2,9.4-3.9s5.2-0.6,8-0.3c2.8,0.3,6.2,0.9,9.1,2.1c3,1.2,5.5,3.1,6.7,7
				c1.1,3.9,0.8,9.8,1.6,13.3c0.8,3.4,2.8,4.4,6.7,5.1c3.9,0.7,9.6,1.2,14.1,2.9C576.8,88.9,580,91.6,582.4,95.3z"/>
			<path class="st1" d="M429.5,250.7l-44.3,326.9c-21.2,0-42.4,0-63.6,0l42.8-326.9C386.1,250.7,407.8,250.7,429.5,250.7z"/>
			<path class="st1" d="M235.7,250.7l42.8,326.9c-21.2,0-42.4,0-63.6,0l-44.3-326.9C192.3,250.7,214,250.7,235.7,250.7z"/>
			<path class="st1" d="M123.4,150.5c-4.4,2.5-9.5,5.6-13.8,7.6c-1,0.5-1.9,0.9-2.8,1.6c-27.6-33.1-30.9-37.9-33.4-40.4
				c-2.5-2.5-4.3-2.8-7.2-2.3c-2.9,0.4-6.9,1.6-10.3,2.9c-3.4,1.3-6.2,2.7-9.9,3.1c-3.7,0.4-8.2-0.3-11.2-1.7
				c-3.1-1.5-4.8-3.8-6-6.9c-1.2-3.1-2-6.9-2.1-9.9c-0.1-3,0.4-5.2,1.2-7.9c0.8-2.7,2-5.9,3.7-8.6c1.7-2.7,4-4.9,8.1-5.3
				c4-0.4,9.8,1,13.4,0.8c3.5-0.2,4.8-2,6.2-5.7c1.4-3.7,3-9.2,5.4-13.3c2.4-4.1,5.8-6.8,9.8-8.5c4-1.7,8.8-2.3,13.3-1.1
				c4.5,1.2,8.7,4.3,11.7,7.6c3,3.3,4.6,6.9,5.3,10.6c0.7,3.7,0.5,7.4-1.1,10.6s-4.4,5.9-7,8.3c-2.6,2.4-5.1,4.6-6.5,7.3
				C88.9,102,88.5,105.1,123.4,150.5z"/>
		</g>
	</g>
</g>
<g id="outline">
	<path class="st3" d="M519.6,212.8c0,0.5,0,1.1,0,1.6c0,10,0,20,0,30c0,3.5-2.8,6.3-6.3,6.3c-142.2,0-284.3,0-426.5,0
		c-3.5,0-6.3-2.8-6.3-6.3c0-10.5,0-21.1,0-31.6c0-3.5,2.8-6.3,6.3-6.3c141.4,0,282.9,0,424.3,0c0.7,0,1.5,0,2.2,0
		C516.8,206.5,519.6,209.3,519.6,212.8z"/>
	<path class="st3" d="M102.9,250.7c14.7,104.4,29.5,208.9,44.2,313.3c1.1,7.8,7.8,13.6,15.6,13.6c92.3,0,184.7,0,277,0
		c7.8,0,14.5-5.8,15.6-13.5c14.9-104.5,29.8-208.9,44.8-313.4"/>
	<line class="st3" x1="170.6" y1="250.7" x2="214.9" y2="577.6"/>
	<line class="st3" x1="429.5" y1="250.7" x2="385.2" y2="577.6"/>
	<path class="st3" d="M112.2,206.5c-11.9-44.9-7.8-45.8-2.6-48.4s11.8-6.7,16.7-9.2c4.9-2.5,8.2-3.5,14.5-0.9
		c6.3,2.6,15.6,8.8,101.2,58.4"/>
	<path class="st3" d="M232.6,201c28.5-62.7,35.9-69.8,43.2-73.6c7.3-3.8,14.6-4.3,20-4.4c5.4-0.2,8.9,0,13.3-0.1
		c4.4-0.1,9.8-0.4,16.1,3.6c6.3,4,13.4,12.3,39.5,80"/>
	<path class="st3" d="M493.6,206.5c12.3-43.3,4.2-50.4-3.1-55.8c-7.3-5.4-13.9-9-31-6.4c-17.1,2.5-44.9,11.2-105.3,35.8"/>
	<path class="st3" d="M465.6,143.6c-33.2-47.1-92.1-41.7-125,5.2"/>
	<path class="st3" d="M123.4,150.5C88.5,105.1,88.9,102,90.3,99.4c1.4-2.6,3.9-4.8,6.5-7.3c2.6-2.4,5.5-5.1,7-8.3
		c1.5-3.2,1.8-6.9,1.1-10.6c-0.7-3.7-2.4-7.3-5.3-10.6s-7.2-6.4-11.7-7.6c-4.5-1.2-9.2-0.6-13.3,1.1c-4,1.7-7.4,4.4-9.8,8.5
		c-2.4,4.1-4,9.6-5.4,13.3c-1.4,3.7-2.7,5.5-6.2,5.6c-3.5,0.2-9.3-1.2-13.4-0.8c-4,0.4-6.4,2.6-8.1,5.3c-1.7,2.7-2.9,5.9-3.7,8.6
		c-0.8,2.7-1.3,4.9-1.2,7.9c0.1,3,0.9,6.9,2.1,10c1.2,3.1,2.9,5.4,6,6.9c3.1,1.5,7.6,2.1,11.2,1.7c3.7-0.4,6.5-1.8,9.9-3.1
		c3.4-1.3,7.4-2.4,10.3-2.9c2.9-0.4,4.7-0.2,7.2,2.3c2.5,2.5,5.8,7.4,33.4,40.4"/>
	<path class="st3" d="M498.5,160.7c38.2-42.7,41.3-42.9,44.2-42c2.8,0.9,5.4,2.9,8.3,5c2.9,2.1,6.1,4.4,9.5,5.3
		c3.4,0.9,7.1,0.5,10.6-0.9c3.5-1.4,6.7-3.7,9.4-7.2c2.7-3.5,5-8.2,5.4-12.9c0.4-4.6-1.1-9.2-3.5-12.9c-2.4-3.7-5.6-6.5-10.1-8.1
		c-4.5-1.6-10.2-2.1-14.1-2.9c-3.9-0.7-5.9-1.6-6.7-5.1c-0.8-3.4-0.5-9.4-1.6-13.3c-1.1-3.9-3.7-5.8-6.7-7c-3-1.2-6.3-1.8-9.1-2.1
		c-2.8-0.3-5-0.4-8,0.3c-2.9,0.7-6.6,2.1-9.4,3.9c-2.8,1.8-4.8,3.8-5.7,7.1c-0.9,3.3-0.7,7.8,0.4,11.4c1.1,3.5,3,6,4.8,9.2
		c1.9,3.1,3.8,6.8,4.7,9.6c1,2.8,1.1,4.6-1,7.5c-2.1,3-6.3,7.2-34.6,41.5"/>
	<line class="st3" x1="364.5" y1="250.7" x2="321.7" y2="577.6"/>
	<line class="st3" x1="235.7" y1="250.7" x2="278.5" y2="577.6"/>
	<path class="st3" d="M164.1,161c1.9-37.5,23.7-45.1,44.4-46.5c21.6-1.5,41.9,3.8,54.2,26.6"/>
</g>
</svg>
