<?xml version="1.0" encoding="utf-8"?>
<!-- Generator: Adobe Illustrator 20.1.0, SVG Export Plug-In . SVG Version: 6.00 Build 0)  -->
<svg version="1.1" xmlns="http://www.w3.org/2000/svg" xmlns:xlink="http://www.w3.org/1999/xlink" x="0px" y="0px"
	 viewBox="0 0 512 512" style="enable-background:new 0 0 512 512;" xml:space="preserve">
<style type="text/css">
	.st0{display:none;}
	.st1{display:inline;}
	.st2{fill:#4A4A4A;stroke:#FFFFFF;stroke-miterlimit:10;}
	.st3{fill:#4A4A4A;}
	.st4{fill:none;stroke:#4A4A4A;stroke-width:3;stroke-linecap:round;stroke-linejoin:round;}
	.st5{fill:none;stroke:#4A4A4A;stroke-width:4;stroke-linecap:round;stroke-linejoin:round;}
	.st6{fill:none;stroke:#4A4A4A;stroke-width:2;stroke-linecap:round;stroke-linejoin:round;}
	.st7{fill:none;stroke:#4A4A4A;stroke-width:5;stroke-linecap:round;stroke-linejoin:round;}
	.st8{fill:#F4F4F4;stroke:#FFFFFF;stroke-miterlimit:10;}
	.st9{fill:#F4F4F4;}
	.st10{fill:none;stroke:#F4F4F4;stroke-width:3;stroke-linecap:round;stroke-linejoin:round;}
	.st11{fill:none;stroke:#F4F4F4;stroke-width:4;stroke-linecap:round;stroke-linejoin:round;}
	.st12{fill:none;stroke:#F4F4F4;stroke-width:2;stroke-linecap:round;stroke-linejoin:round;}
	.st13{fill:none;stroke:#F4F4F4;stroke-width:5;stroke-linecap:round;stroke-linejoin:round;}
</style>
<g id="Layer_2" class="st0">
	<path class="st1" d="M705.5,644.8h-807.3c-6.6,0-12-5.4-12-12V-45.8c0-6.6,5.4-12,12-12h807.3c6.6,0,12,5.4,12,12v678.7
		C717.5,639.4,712.1,644.8,705.5,644.8z"/>
</g>
<g id="Outline">
	
		<ellipse transform="matrix(0.7348 -0.6783 0.6783 0.7348 -20.1971 249.9577)" class="st2" cx="309.6" cy="150.8" rx="5.2" ry="5.2"/>
	
		<ellipse transform="matrix(0.7348 -0.6783 0.6783 0.7348 -26.3371 192.0918)" class="st2" cx="232.5" cy="129.7" rx="5.2" ry="5.2"/>
	<g>
		<path class="st3" d="M266.5,117.5c0,0,0.6-0.9,1.6-2.5c1.1-1.6,2.7-3.9,5.2-6.5c2.5-2.6,6.1-5.4,10.9-7.4c2.4-1,5.1-1.7,7.9-2.1
			c2.9-0.4,6-0.4,9.1-0.2c0.8,0.1,1.5,0.1,2.4,0.2c0.8,0.1,1.6,0.2,2.4,0.3c1.6,0.3,3.3,0.6,5,1.1c1.7,0.5,3.4,1.3,5,2.3
			c1.6,1,3,2.2,4.4,3.5c5.3,5.2,9.6,11.8,12.5,19.2c1.5,3.7,2.6,7.6,3.6,11.5c1,3.9,1.8,7.9,2.4,11.9c1.4,8,2.4,16.1,4,23.9
			c0.4,2,0.8,3.9,1.3,5.8c0.2,0.9,0.5,1.9,0.8,2.8l0.5,1.5l0.5,1.3c1.3,3.6,3,7.1,5,10.4c1,1.6,2.1,3.2,3.2,4.8
			c0.6,0.8,1.1,1.6,1.7,2.3c0.6,0.8,1.2,1.5,1.8,2.3c2.4,3,5,6,7.3,9.1c4.8,6.2,8.7,12.7,11.9,19.1c3.1,6.4,5.6,12.9,6.3,19.4
			c0.3,3.2,0.1,6.3-0.5,9.2c-0.5,2.8-1.3,5.4-2.1,7.8c-1.6,4.8-3.3,8.8-4.7,12.1c-1.4,3.3-2.6,5.8-3.4,7.6c-0.8,1.7-1.3,2.7-1.3,2.7
			s0.3-1,1-2.8c0.6-1.8,1.5-4.5,2.6-7.9c1.1-3.4,2.4-7.5,3.6-12.3c1.1-4.8,2.2-10.3,1.3-16c-0.1-0.7-0.3-1.4-0.4-2.1
			c-0.2-0.7-0.4-1.6-0.6-2.2c-0.4-1.5-1-2.9-1.6-4.4c-1.2-3-2.6-6-4.3-9c-3.3-6-7.4-12.1-12.1-17.9c-2.3-2.9-4.9-5.8-7.5-8.9
			c-0.6-0.8-1.3-1.5-1.9-2.3c-0.6-0.8-1.3-1.6-1.9-2.4c-1.2-1.7-2.4-3.4-3.5-5.2c-2.2-3.6-4.1-7.4-5.6-11.4l-0.6-1.5l-0.5-1.4
			c-0.3-1.1-0.6-2.1-0.9-3.1c-0.6-2-1-4.1-1.5-6.1c-1.6-8.2-2.6-16.3-3.9-24.2c-1.3-7.8-2.7-15.5-5.2-22.4c-1.3-3.5-2.8-6.7-4.6-9.7
			c-1.8-3-3.9-5.8-6.1-8.2c-2.3-2.5-4.7-4.2-7.6-5.2c-1.4-0.5-2.9-0.9-4.4-1.3c-0.7-0.2-1.5-0.3-2.2-0.4c-0.7-0.1-1.6-0.2-2.3-0.3
			c-3-0.4-5.8-0.5-8.4-0.4c-2.7,0.2-5.2,0.7-7.4,1.4c-4.5,1.5-8.2,3.8-10.9,6.1c-2.7,2.3-4.6,4.3-5.8,5.8
			C267.1,116.7,266.5,117.5,266.5,117.5z"/>
	</g>
	<g>
		<path class="st3" d="M266.5,117.5c0,0-0.2-0.2-0.5-0.7c-0.3-0.5-0.8-1.2-1.5-2c-1.3-1.7-3.4-4.3-6.5-6.9c-1.6-1.3-3.4-2.6-5.5-3.7
			c-2.2-1.1-4.6-2.1-7.3-3c-5.3-1.7-11.8-2.6-18-0.2c-3.1,1.1-6.1,3-8.7,5.5c-1.3,1.2-2.5,2.6-3.7,4.1c-0.3,0.4-0.5,0.8-0.8,1.1
			l-0.2,0.3l-0.2,0.3l-0.4,0.6c-0.5,0.8-1,1.6-1.4,2.5c-3.7,6.8-6,15-8.4,23.5c-2.4,8.5-4.6,17.4-7.5,26.3c-2.8,8.9-6,18-10.1,26.7
			c-1,2.2-2.1,4.4-3.2,6.5c-1.2,2.2-2.3,4.2-3.6,6.3c-2.4,4.1-5,8.1-7.6,12c-2.5,3.9-5,7.7-7.4,11.5c-2.3,3.8-4.5,7.7-6.4,11.6
			c-3.8,7.8-6.8,15.7-8.9,23.4c-2.1,7.7-3.3,15.1-2.8,21.9c0.5,6.8,2.9,12.7,5.4,17.8c1.3,2.5,2.6,4.8,4,6.8c1.4,1.9,3,3.4,4.7,4.6
			c1.7,1.1,3.3,2,4.7,2.7c1.4,0.7,2.6,1.4,3.6,1.9c2,1,3,1.6,3,1.6s-1.1-0.5-3.1-1.3c-1-0.4-2.3-0.9-3.8-1.5
			c-1.5-0.6-3.2-1.3-5.1-2.4c-1.8-1-3.8-2.6-5.4-4.5c-1.7-1.9-3.2-4.3-4.7-6.7c-1.5-2.5-3-5.3-4.2-8.4c-0.6-1.6-1.2-3.2-1.6-4.9
			c-0.1-0.4-0.2-0.8-0.3-1.3c-0.1-0.4-0.2-0.9-0.3-1.3c-0.2-0.9-0.3-1.8-0.4-2.7c-0.9-7.3,0-15.3,1.9-23.4
			c1.9-8.1,4.6-16.3,8.4-24.6c3.8-8.2,8.5-16.3,13.6-24c2.5-3.9,5-7.8,7.4-11.8c1.2-2,2.3-4,3.4-6c1.1-2.1,2.1-4.1,3.1-6.2
			c3.9-8.4,7.1-17.2,10-25.9c2.8-8.8,5.4-17.5,7.9-26.1c2.6-8.5,5.3-16.8,9.6-24.2c0.5-0.9,1.1-1.8,1.7-2.7l0.4-0.6l0.2-0.3l0.3-0.3
			c0.3-0.4,0.6-0.8,1-1.2c1.3-1.6,2.8-3.1,4.3-4.4c3.1-2.6,6.6-4.6,10.2-5.7c3.6-1.2,7.3-1.4,10.7-1.1c3.4,0.4,6.4,1.3,9.2,2.3
			c2.7,1,5.2,2.2,7.4,3.6c2.2,1.4,4,2.9,5.5,4.3c1.5,1.5,2.7,2.9,3.7,4.2c0.5,0.6,0.9,1.3,1.3,1.8c0.4,0.6,0.7,1.1,1,1.6
			c0.6,0.9,1,1.7,1.3,2.2C266.3,117.2,266.5,117.5,266.5,117.5z"/>
	</g>
	<g>
		<path class="st3" d="M162,315.8c0,0,0,0.4,0,1.1c0,0.7-0.1,1.7,0,2.9c0,0.6,0,1.3,0.1,2c0.1,0.7,0.2,1.5,0.2,2.4
			c0.2,0.8,0.3,1.7,0.5,2.7c0.3,0.9,0.4,1.9,0.8,2.9c0.3,1,0.6,2,1,3c0.4,1,0.9,2.1,1.4,3.1c1,2.1,2.3,4.2,3.7,6.3
			c1.5,2.1,3.2,4.1,5,6.1c0.4,0.5,0.9,1,1.4,1.4l0.4,0.4l0.3,0.3l0.8,0.7c0.5,0.5,1,0.9,1.5,1.3c0.5,0.4,1,0.8,1.6,1.2
			c2.1,1.6,4.4,3,6.8,4.2c2.4,1.2,4.9,2.1,7.4,3c2.5,0.9,5,1.6,7.3,2.4c2.3,0.7,4.6,1.5,6.6,2.1c4.1,1.3,7.6,2.3,10,2.8
			c1.2,0.3,2.2,0.4,2.9,0.5c0.7,0.1,1,0.1,1,0.1s-0.4,0.1-1,0.2c-0.7,0.1-1.7,0.3-3,0.3c-2.6,0.1-6.3,0-10.7-0.6
			c-2.2-0.3-4.5-0.7-7-1.1c-2.5-0.5-5-1-7.7-1.7c-2.7-0.7-5.5-1.6-8.3-2.8c-2.8-1.2-5.5-2.8-8-4.7c-0.6-0.5-1.2-1-1.8-1.5
			c-0.6-0.5-1.2-1.1-1.7-1.6l-0.8-0.7l-0.4-0.4l-0.4-0.4c-0.5-0.6-1-1.1-1.5-1.7c-2-2.3-3.7-4.7-5.2-7.2c-1.4-2.5-2.6-5-3.4-7.5
			c-0.8-2.5-1.4-4.9-1.6-7.2c-0.1-1.1-0.2-2.2-0.2-3.3c0-1,0.1-2,0.1-2.9c0.1-0.9,0.2-1.8,0.3-2.5c0.1-0.8,0.3-1.5,0.5-2.1
			c0.1-0.6,0.3-1.2,0.5-1.7c0.2-0.5,0.3-0.9,0.4-1.2C161.9,316.1,162,315.8,162,315.8z"/>
	</g>
	<g>
		<path class="st3" d="M195.6,156.3c0,0-0.3,0.2-0.8,0.7c-0.5,0.4-1.3,1.1-2.3,1.9c-1,0.8-2.2,1.8-3.6,2.9c-1.4,1.1-2.9,2.4-4.6,3.8
			c-1.6,1.4-3.4,2.9-5.2,4.6c-1.8,1.7-3.6,3.5-5.5,5.4c-1.8,2-3.5,4-5.1,6.2c-1.6,2.2-3,4.6-4.2,7.1c-1.3,2.5-2.3,5.1-3.3,7.7
			c-1,2.6-1.8,5.2-2.5,7.7c-0.7,2.5-1.2,5-1.5,7.4c-0.3,2.4-0.5,4.7-0.4,6.8c0,2.1,0.1,4.1,0.3,5.8c0.2,1.7,0.4,3.3,0.6,4.5
			c0.2,1.3,0.4,2.3,0.5,2.9c0.1,0.7,0.2,1.1,0.2,1.1s-0.2-0.3-0.5-0.9c-0.3-0.6-0.9-1.5-1.4-2.7c-0.3-0.6-0.6-1.3-0.9-2
			c-0.3-0.7-0.6-1.5-0.9-2.4c-0.3-0.9-0.6-1.8-0.8-2.8c-0.2-1-0.5-2.1-0.7-3.2c-0.4-2.3-0.6-4.7-0.6-7.4c0-2.6,0.3-5.4,0.8-8.3
			c0.5-2.8,1.3-5.7,2.2-8.6c0.9-2.8,2-5.7,3.4-8.4c1.4-2.8,3.1-5.4,4.9-7.8c1.8-2.4,3.9-4.6,6-6.5c2.1-1.9,4.3-3.7,6.4-5.1
			c2.1-1.5,4.2-2.8,6.1-4c1.9-1.1,3.7-2.1,5.4-2.9c1.6-0.8,3-1.5,4.2-2c1.2-0.5,2.1-0.9,2.8-1.2
			C195.2,156.5,195.6,156.3,195.6,156.3z"/>
	</g>
	
		<ellipse transform="matrix(0.9713 -0.238 0.238 0.9713 -26.7483 59.3652)" class="st4" cx="232.5" cy="140.5" rx="21.4" ry="21.4"/>
	<ellipse transform="matrix(0.9713 -0.238 0.238 0.9713 -25.817 76.4474)" class="st4" cx="303.7" cy="145.1" rx="21.4" ry="21.4"/>
	<path class="st5" d="M227.4,174.7c14.7-4.3,21.9-8.2,26.9-11.2c5-3,7.7-5.2,10.5-6.1c2.8-0.9,5.7-0.6,8.5,1c2.8,1.5,5.4,4.3,8,6.9
		s5.4,5.1,9.4,7.2c4,2.1,9.2,3.7,17.3,4.1"/>
	<path class="st5" d="M227.4,174.7c10.1,8.4,16,14.7,20.9,19c4.9,4.3,8.8,6.6,12.6,8c3.7,1.4,7.2,1.9,10.7,1.5
		c3.5-0.3,7.1-1.5,11.9-4.8c4.9-3.3,11.1-8.7,24.5-21.8"/>
	<path class="st6" d="M237.7,183.8c12.3-1.1,16.2-0.9,18.6-0.8c2.4,0.2,3.3,0.4,4.6,1.5c1.3,1.1,2.8,3.2,4.2,4.7
		c1.4,1.5,2.5,2.4,3.6,2.8c1.1,0.5,2.2,0.5,3.5,0c1.4-0.6,3-1.7,4.7-3.1c1.7-1.4,3.6-3,6.1-3.8c2.5-0.8,5.7-0.7,17.3-1"/>
	<g>
		<path class="st3" d="M241.7,187.6c0,0-0.1,0.6-0.3,1.6c-0.2,1.1-0.5,2.6-1,4.5c-0.5,1.9-1.2,4.3-2.4,6.9c-1.1,2.6-2.6,5.5-4.7,8.3
			c-2.1,2.9-4.8,5.7-7.6,8.3c-1.4,1.3-2.8,2.7-4,4.1c-0.6,0.7-1.1,1.4-1.5,2.1c-0.4,0.7-0.7,1.5-1,2.4c-1,3.4-1.3,7.8-0.2,11.1
			c1.1,3.4,3.9,6.3,7.3,7.3c1.7,0.6,3.7,0.8,5.8,0.8c2.1,0,4.2-0.1,6.2-0.5c2-0.3,3.9-0.9,5.7-1.6c1.8-0.8,3.4-1.8,5.1-3
			c3.3-2.4,6.4-4.9,8.4-7.7c2-2.8,3.2-6.1,4-9.3c0.9-3.2,1.5-6.2,1.6-8.8c0.1-2.6-0.2-5-0.6-6.9c-0.4-1.9-0.9-3.4-1.3-4.4
			c-0.4-1-0.6-1.5-0.6-1.5s0.3,0.5,0.9,1.4c0.5,0.9,1.4,2.3,2.1,4.2c0.8,1.9,1.5,4.3,1.8,7.2c0.1,1.4,0.2,3,0.1,4.6
			c-0.1,1.6-0.3,3.2-0.6,5c-0.6,3.4-1.4,7.3-3.7,11.1c-2.3,3.7-5.6,6.7-9,9.4c-1.7,1.4-3.7,2.7-5.9,3.8c-2.2,1.1-4.6,1.8-7,2.3
			c-2.4,0.4-4.8,0.7-7.2,0.7c-2.4,0-5-0.2-7.6-1.1c-5.3-1.7-9.4-6.1-11-11.2c-0.2-0.6-0.4-1.4-0.5-1.9c-0.1-0.7-0.2-1.3-0.3-2
			c-0.1-1.3-0.1-2.5,0-3.7c0.2-2.4,0.6-4.8,1.5-7.1c0.4-1.1,1-2.3,1.7-3.3c0.7-1.1,1.5-2,2.3-2.8c1.6-1.6,3.1-2.9,4.7-4.1
			c3.1-2.5,5.7-4.7,7.9-7.2c2.2-2.4,4-4.9,5.4-7.2c1.4-2.3,2.5-4.5,3.3-6.2c0.8-1.8,1.4-3.2,1.8-4.2
			C241.5,188.2,241.7,187.6,241.7,187.6z"/>
	</g>
	<g>
		<path class="st3" d="M275.6,202.4c0,0-0.2,0.6-0.5,1.6c-0.2,0.5-0.4,1.2-0.5,1.9c-0.2,0.8-0.4,1.6-0.6,2.6c-0.4,2-0.7,4.4-0.7,7.1
			c0,1.4,0.1,2.8,0.4,4.3c0.2,1.5,0.6,3,1.2,4.6c0.5,1.6,1.2,3.1,2.1,4.7l0.3,0.6l0.3,0.6c0.2,0.4,0.5,0.8,0.7,1.2
			c0.5,0.8,1,1.5,1.6,2.3c2.3,3,5.2,5.4,8.8,7.6c1.7,1,3.6,2,5.5,2.8c1.9,0.8,3.9,1.4,5.9,1.8l0.8,0.1l0.7,0.1
			c0.5,0.1,1,0.1,1.6,0.2c1.1,0.1,2.1,0.1,3.2,0.1c2.1,0,4.2-0.2,6.1-0.8c1.9-0.5,3.4-1.3,4.4-2.6c0.5-0.7,1-1.3,1.4-2.3
			c0.4-0.7,0.7-1.7,0.9-2.7c0.5-1.9,0.7-4,0.6-5.9c-0.1-1.9-0.6-3.3-1.6-4.8c-1-1.4-2.5-2.8-4-4.3c-1.5-1.5-3.1-2.9-4.4-4.5
			c-0.7-0.8-1.4-1.6-2-2.3c-0.3-0.4-0.6-0.8-0.9-1.2c-0.3-0.4-0.6-0.8-0.8-1.2c-1.2-1.7-2.1-3.3-3-4.9c-1.7-3.2-2.7-6.4-3.5-9.2
			c-0.7-2.8-1.1-5.3-1.4-7.3c-0.1-1-0.2-1.9-0.3-2.7c-0.1-0.8-0.1-1.5-0.1-2c0-1.1-0.1-1.7-0.1-1.7s0.1,0.6,0.4,1.6
			c0.2,1.1,0.7,2.6,1.2,4.6c0.6,1.9,1.3,4.3,2.4,6.9c1.1,2.6,2.5,5.4,4.3,8.2c0.9,1.4,2,2.8,3.1,4.1c0.3,0.4,0.6,0.7,0.9,1.1
			c0.3,0.3,0.6,0.7,0.9,1c0.6,0.7,1.3,1.3,2,2c1.4,1.3,2.9,2.6,4.5,4c0.8,0.7,1.6,1.4,2.5,2.1c0.9,0.8,1.7,1.6,2.5,2.7
			c0.8,1,1.5,2.2,2,3.5c0.5,1.3,0.8,2.7,0.9,4c0.2,2.6,0,5.1-0.5,7.7c-0.3,1.3-0.7,2.5-1.3,3.9c-0.5,1.2-1.3,2.5-2.2,3.6
			c-1,1.1-2.1,2.1-3.4,2.9c-0.6,0.4-1.3,0.7-1.9,1c-0.3,0.1-0.7,0.3-1.1,0.4l-0.4,0.1l-0.2,0.1l-0.3,0.1c-2.6,0.7-5.2,0.9-7.7,0.9
			c-1.3,0-2.5-0.1-3.8-0.2c-0.6-0.1-1.2-0.1-1.9-0.2l-1-0.2l-0.8-0.2c-5-1.1-9.4-3.3-13.2-5.9c-1.8-1.3-3.7-2.7-5.3-4.3
			c-1.6-1.6-3-3.3-4.2-5.1c-0.6-0.9-1.1-1.8-1.6-2.7c-0.3-0.5-0.5-0.9-0.7-1.4l-0.3-0.7l-0.3-0.7c-0.8-1.8-1.4-3.7-1.8-5.5
			c-0.9-3.6-0.9-7.1-0.5-10c0.3-2.9,1.1-5.4,1.8-7.3c0.2-0.5,0.4-0.9,0.5-1.4c0.2-0.4,0.4-0.8,0.5-1.2c0.3-0.7,0.6-1.3,0.9-1.8
			C275.4,203,275.6,202.4,275.6,202.4z"/>
	</g>
	<g>
		<path class="st3" d="M162.3,225.7c0,0,0.1,0,0.3,0.1c0.2,0.1,0.4,0.2,0.7,0.4c0.1,0.1,0.3,0.2,0.4,0.3c0.2,0.1,0.3,0.2,0.5,0.3
			c0.4,0.2,0.7,0.4,1.1,0.5c0.2,0.1,0.4,0.2,0.6,0.3c0.2,0.1,0.4,0.1,0.6,0.2c0.2,0.1,0.4,0.1,0.6,0.2c0.2,0,0.4,0.1,0.6,0.1
			c0.2,0,0.4,0.1,0.6,0.1c0.2,0,0.4,0,0.6,0c0.4,0,0.8,0,1.3,0c0.4,0,0.9-0.1,1.3-0.1c0.2-0.1,0.5-0.1,0.7-0.1
			c0.2,0,0.5-0.1,0.7-0.2c0.5-0.1,1-0.2,1.4-0.3c0.5-0.1,0.9-0.3,1.4-0.4c0.5-0.1,0.9-0.3,1.3-0.4c0.4-0.1,0.8-0.2,1.1-0.3
			c0.3-0.1,0.6-0.2,0.8-0.2c0.2,0,0.3-0.1,0.3-0.1s0,0.1,0,0.3c0,0.2,0,0.5-0.1,0.8c-0.1,0.3-0.1,0.8-0.3,1.2
			c-0.2,0.4-0.4,0.9-0.7,1.4c-0.3,0.5-0.7,1-1.2,1.5c-0.5,0.5-1,1-1.7,1.4c-0.6,0.4-1.4,0.8-2.1,1.1c-0.8,0.2-1.6,0.5-2.5,0.5
			c-0.9,0.1-1.8-0.1-2.6-0.2c-0.4-0.1-0.9-0.3-1.3-0.4c-0.4-0.2-0.8-0.4-1.1-0.6c-0.4-0.2-0.7-0.5-1-0.7c-0.3-0.3-0.6-0.5-0.8-0.8
			c-0.2-0.3-0.4-0.6-0.6-0.9c-0.2-0.3-0.3-0.6-0.4-0.9c-0.3-0.5-0.4-1.1-0.5-1.6c0-0.2-0.1-0.5-0.1-0.7c0-0.2,0-0.4,0-0.5
			c0-0.3,0.1-0.6,0.1-0.8C162.2,225.8,162.3,225.7,162.3,225.7z"/>
	</g>
	<g>
		<path class="st3" d="M173.2,230.6c0,0,0,0.2,0,0.5c0,0.3,0.1,0.8,0.1,1.4c0,0.6,0.1,1.3,0.1,2.1c0,0.8,0,1.7,0.1,2.6
			c0,0.5,0,1,0.1,1.5c0,0.5,0.1,1,0.1,1.5c0.1,1,0.3,2,0.6,2.9c0.3,0.9,0.7,1.7,1.2,2.5c0.3,0.4,0.6,0.7,0.9,1.1l0.5,0.5
			c0.2,0.2,0.5,0.5,0.7,0.6c0.3,0.3,0.7,0.6,1.1,0.8c0.4,0.2,0.8,0.5,1.2,0.6c0.9,0.3,1.8,0.6,2.8,0.7c1,0.1,2.1,0.1,3.1,0.1
			c1,0,2-0.1,3-0.2c2-0.2,3.6-0.3,4.7-0.4c0.6-0.1,1.1-0.1,1.4-0.1c0.3,0,0.5,0,0.5,0s-0.1,0.1-0.4,0.3c-0.2,0.2-0.6,0.5-1.1,0.9
			c-0.5,0.4-1.1,0.8-1.8,1.3c-0.7,0.5-1.5,0.9-2.4,1.4c-0.9,0.4-2,0.9-3.2,1.3c-1.2,0.4-2.5,0.7-3.9,0.8c-0.4,0-0.7,0-1.1,0
			c-0.4,0-0.8,0-1.1-0.1c-0.8-0.1-1.6-0.2-2.4-0.5c-0.4-0.1-0.8-0.3-1.2-0.4c-0.4-0.1-0.8-0.3-1.1-0.6c-0.7-0.4-1.4-0.9-2.1-1.5
			c-0.3-0.3-0.5-0.5-0.8-0.7l-0.5-0.5c-0.1-0.1-0.3-0.3-0.4-0.4c-0.5-0.6-1-1.3-1.4-2c-0.9-1.4-1.3-3-1.5-4.5
			c-0.2-1.5-0.1-2.9,0.1-4.1c0.2-1.2,0.5-2.3,0.8-3.3c0.3-1,0.7-1.9,1.1-2.6c0.4-0.8,0.7-1.4,1-1.9c0.3-0.5,0.6-0.9,0.8-1.2
			C173.1,230.8,173.2,230.6,173.2,230.6z"/>
	</g>
	<g>
		<path class="st3" d="M195.4,249.3c0,0,0,0.1-0.1,0.4c-0.1,0.2-0.1,0.6-0.2,1c-0.1,0.4-0.2,0.9-0.4,1.5c-0.2,0.6-0.3,1.2-0.5,1.9
			c-0.2,0.6-0.4,1.4-0.6,2.1c-0.2,0.7-0.4,1.5-0.6,2.2c-0.2,0.7-0.3,1.4-0.4,2c0,0.6,0,1,0.1,1.4c0,0.1,0.1,0.3,0.1,0.3l0.1,0.3
			c0,0,0,0,0,0.1c0.1,0.2,0.2,0.3,0.3,0.4c0.2,0.2,0.4,0.4,1,0.6l0.4,0.1l0.3,0.1l0.2,0.1c0.3,0.1,0.5,0.1,0.8,0.1
			c0.6,0.1,1.2,0,1.8,0c0.6-0.1,1.2-0.2,1.8-0.3c0.6-0.1,1.1-0.2,1.5-0.3c0.8-0.2,1.4-0.3,1.4-0.3s-0.1,0.1-0.2,0.3
			c-0.1,0.2-0.3,0.5-0.5,0.9c-0.5,0.8-1.2,1.8-2.5,2.8c-0.7,0.5-1.5,1-2.5,1.3c-0.5,0.2-1.1,0.3-1.6,0.4l-0.5,0l-0.3,0
			c-0.3,0-0.6,0-0.9,0c-1.2-0.1-2.7-0.5-3.9-1.5c-0.6-0.5-1.1-1.1-1.5-1.7l-0.3-0.5l-0.2-0.3c-0.2-0.4-0.3-0.7-0.4-1
			c-0.5-1.4-0.4-2.9-0.2-4.1c0.1-0.6,0.3-1.2,0.5-1.7c0.2-0.5,0.4-1,0.7-1.4c0.5-0.9,1-1.7,1.6-2.3c0.6-0.7,1.1-1.3,1.7-1.8
			c1.1-1,2.1-1.8,2.9-2.2c0.4-0.2,0.7-0.4,0.9-0.5C195.3,249.3,195.4,249.3,195.4,249.3z"/>
	</g>
	<g>
		<path class="st3" d="M202.4,262.9c0,0,0,0.1,0.1,0.3c0,0.2,0.1,0.4,0.1,0.8c0,0.3,0.1,0.7,0.2,1.1c0.1,0.4,0.1,0.8,0.2,1.3
			c0.1,0.5,0.1,0.9,0.2,1.4c0.1,0.4,0.2,0.9,0.3,1.2c0.1,0.3,0.3,0.5,0.4,0.7c0.1,0.1,0.2,0.2,0.5,0.4l0.2,0.2l0.1,0l0.2,0.1
			c0.1,0.1,0.2,0.2,0.4,0.3c0.2,0.2,0.5,0.3,0.8,0.5c0.2,0.1,0.3,0.1,0.5,0.2c0,0,0.3,0,0.3,0.1c0.1,0,0.1,0,0.2,0.1
			c0.4,0.1,0.8,0.1,1.2,0.2c0.8,0,1.7,0,2.3-0.1c0.3,0,0.6,0,0.8-0.1c0.2,0,0.3,0,0.3,0s-0.1,0.4-0.3,1c-0.3,0.6-0.7,1.5-1.6,2.3
			c-0.5,0.4-1,0.8-1.7,1.1c-0.2,0.1-0.4,0.1-0.6,0.2c-0.3,0.1-0.2,0.1-0.5,0.2c-0.4,0.1-0.8,0.1-1.2,0.2c-0.9,0.1-1.8-0.1-2.7-0.4
			c-0.4-0.2-0.9-0.4-1.3-0.6c-0.2-0.1-0.4-0.2-0.6-0.4l-0.3-0.2l-0.2-0.2c-0.7-0.6-1.4-1.5-1.8-2.5c-0.4-1-0.5-2-0.4-2.9
			c0.1-0.9,0.3-1.6,0.5-2.2c0.3-0.6,0.6-1.1,0.9-1.6c0.7-0.9,1.4-1.5,1.9-1.9c0.2-0.2,0.5-0.3,0.6-0.4
			C202.3,262.9,202.4,262.9,202.4,262.9z"/>
	</g>
	<g>
		<path class="st3" d="M211.6,271.4c0,0,0,0.2,0.1,0.6c0,0.4,0.1,0.9,0.2,1.6c0.1,0.6,0.3,1.4,0.5,2.3c0.2,0.9,0.5,1.8,0.9,2.7
			c0.4,0.9,1,1.8,1.7,2.5c0.7,0.8,1.6,1.6,2.6,2.3c0.6,0.5,1,0.8,1.6,1.1c0.5,0.3,1.1,0.7,1.6,0.9c1.1,0.6,2.2,1,3.3,1.2
			c0.6,0.1,1.1,0.2,1.8,0.2c0.4,0,0.5,0,0.8,0c0.3,0,0.5,0,0.8,0c1.1-0.1,2.3-0.5,3.5-0.9c2.4-0.9,4.7-2,6.7-3c1-0.5,2-0.9,2.8-1.3
			c0.8-0.4,1.6-0.7,2.2-1c0.6-0.3,1.1-0.5,1.5-0.6c0.3-0.1,0.5-0.2,0.5-0.2s-0.1,0.2-0.3,0.5c-0.2,0.3-0.5,0.8-0.9,1.3
			c-0.8,1.1-2.1,2.6-3.8,4.2c-0.8,0.8-1.8,1.7-2.9,2.5c-1.1,0.8-2.3,1.7-3.7,2.4c-0.7,0.4-1.4,0.7-2.2,1c-0.4,0.2-0.8,0.3-1.2,0.4
			c-0.4,0.1-0.9,0.2-1.3,0.3c-0.5,0.1-0.9,0.2-1.4,0.2c-0.4,0.1-1.1,0-1.5,0c-0.8,0-1.8-0.1-2.7-0.3c-1.8-0.4-3.6-1.1-5-2
			c-0.7-0.5-1.4-1-2.1-1.5c-0.6-0.5-1.3-1.1-1.7-1.6c-1.1-1.2-2.1-2.4-2.8-3.8c-0.7-1.4-1.1-2.8-1.3-4.1c-0.1-1.3-0.1-2.5,0.1-3.5
			c0.2-1,0.4-1.8,0.6-2.5c0.2-0.7,0.5-1.1,0.6-1.5C211.5,271.6,211.6,271.4,211.6,271.4z"/>
	</g>
	<g>
		<path class="st3" d="M241.2,282.6c0,0,0.4,0.5,1.1,1.4c0.3,0.4,0.8,1,1.3,1.5c0.5,0.6,1,1.2,1.6,1.8c0.6,0.6,1.3,1.2,2,1.6
			c0.7,0.5,1.5,0.8,2.5,1.1c0.9,0.3,2.1,0.6,3.2,0.9c1.1,0.3,2.2,0.5,3.2,0.7c1.1,0.2,2.1,0.3,3.2,0.3l0.4,0l0.5,0l0.7,0
			c0.5,0,1-0.1,1.4-0.1c1.8-0.3,3.7-1,5.2-1.8c0.4-0.2,0.8-0.4,1.1-0.6c0.4-0.2,0.7-0.4,1-0.6c0.7-0.4,1.3-0.7,1.7-1
			c1-0.6,1.6-0.9,1.6-0.9s-0.1,0.2-0.2,0.5c-0.1,0.3-0.3,0.7-0.5,1.3c-0.3,0.5-0.6,1.2-1,1.9c-0.4,0.7-1,1.5-1.6,2.3
			c-0.7,0.8-1.5,1.6-2.5,2.3c-1,0.7-2.2,1.4-3.6,1.9c-0.7,0.3-1.4,0.4-2.1,0.6c-0.4,0.1-0.8,0.1-1.1,0.2l-0.5,0l-0.6,0
			c-1.4,0.1-2.9,0-4.3-0.2c-1.4-0.2-2.8-0.6-4.1-1.1l-0.9-0.4c-0.3-0.1-0.6-0.3-0.9-0.4c-0.6-0.3-1.2-0.5-1.8-0.9
			c-1.2-0.7-2.4-1.6-3.3-2.6c-0.9-1-1.5-2.1-1.9-3c-0.4-1-0.7-1.9-0.8-2.7c-0.2-0.8-0.2-1.5-0.3-2.1c-0.1-0.6,0-1,0-1.4
			C241.2,282.7,241.2,282.6,241.2,282.6z"/>
	</g>
	<g>
		<path class="st3" d="M271.1,289.1c0,0,0.1,0.1,0.2,0.4c0.1,0.2,0.3,0.7,0.6,1c0.2,0.4,0.6,0.9,1,1.3c0.4,0.5,0.9,0.8,1.5,1.1
			c0.6,0.3,1.2,0.5,1.9,0.7c0.7,0.2,1.5,0.2,2.3,0.2c0.4,0,0.8,0,1.3-0.1l0.7-0.1l0.5-0.1c0.8-0.2,1.5-0.4,2.2-0.8
			c0.7-0.3,1.3-0.8,2-1.4c0.3-0.3,0.6-0.6,1-0.9l0.2-0.3c0,0,0.1-0.1,0.1-0.1l0.1-0.2l0.5-0.6c0.6-0.7,1.2-1.4,1.7-2.1
			c0.5-0.7,1-1.4,1.4-2.1c0.8-1.3,1.4-2.6,1.8-3.5c0.2-0.5,0.3-0.8,0.4-1.1c0.1-0.3,0.2-0.4,0.2-0.4s0.1,0.1,0.2,0.4
			c0.1,0.3,0.3,0.7,0.4,1.2c0.1,0.5,0.3,1.2,0.3,1.9c0.1,0.8,0.1,1.6,0,2.6c-0.1,0.9-0.3,1.9-0.6,3c-0.3,1-0.7,2.1-1.3,3.2
			c-0.2,0.3-0.3,0.5-0.4,0.7l-0.1,0.2l-0.2,0.2l-0.3,0.4c-0.4,0.5-0.8,1-1.2,1.5c-0.9,1-2,1.9-3.4,2.6c-1.3,0.7-2.8,1.1-4.2,1.2
			c-0.4,0-0.8,0.1-1.1,0.1c-0.3,0-0.6,0-0.9,0c-0.7,0-1.3-0.1-1.9-0.3c-2.5-0.5-4.8-1.9-6-3.7c-0.6-0.9-1-1.8-1.1-2.6
			c-0.2-0.8-0.1-1.5-0.1-2.1c0-0.6,0.2-0.9,0.3-1.2C271,289.3,271.1,289.1,271.1,289.1z"/>
	</g>
	<g>
		<path class="st3" d="M292.7,280.3c0,0,0.1,0,0.2,0c0.1,0,0.4,0,0.7,0c0.3,0,0.6,0,0.9,0c0.3-0.1,0.6-0.1,0.9-0.2
			c0.3-0.1,0.7-0.1,1-0.2c0.3-0.1,0.6-0.2,0.9-0.3c0.3-0.1,0.5-0.2,0.8-0.3c0.3-0.1,0.5-0.2,0.8-0.4c0.1,0,0.3-0.1,0.4-0.2
			c0.1-0.1,0.3-0.1,0.4-0.2c0.1-0.1,0.3-0.1,0.4-0.2c0.1-0.1,0.3-0.2,0.4-0.2c0.3-0.1,0.6-0.3,0.9-0.5c0.3-0.2,0.6-0.3,0.9-0.5
			c0.3-0.2,0.6-0.3,0.9-0.5c0.3-0.2,0.6-0.3,0.7-0.5c0.2-0.2,0.4-0.3,0.5-0.4c0.1-0.1,0.2-0.1,0.2-0.1s0.1,0.1,0.1,0.2
			c0.1,0.1,0.2,0.3,0.3,0.6c0.1,0.3,0.2,0.6,0.3,1c0.1,0.4,0.1,0.8,0.1,1.3c0,0.5-0.2,1-0.3,1.5c-0.2,0.5-0.4,1.1-0.8,1.6
			c-0.3,0.5-0.8,1-1.3,1.4c-0.2,0.2-0.5,0.4-0.8,0.6c-0.3,0.2-0.6,0.4-0.9,0.5c-0.6,0.3-1.3,0.5-2,0.6c-0.3,0-0.7,0-1,0
			c-0.3,0-0.7,0-1-0.1c-0.7-0.1-1.3-0.3-1.8-0.6c-0.5-0.3-1-0.6-1.3-1c-0.4-0.4-0.7-0.8-0.9-1.1c-0.2-0.3-0.3-0.7-0.4-0.9
			c-0.1-0.3-0.1-0.5-0.2-0.6C292.7,280.4,292.7,280.3,292.7,280.3z"/>
	</g>
	<g>
		<path class="st3" d="M303,279.2c0,0,0.1,0.1,0.3,0.1c0.2,0.1,0.5,0.2,0.9,0.4c0.4,0.2,0.9,0.4,1.3,0.7c0.5,0.3,1,0.5,1.6,0.8
			c0.3,0.1,0.6,0.2,0.9,0.4c0.3,0.1,0.6,0.2,0.9,0.3c0.6,0.2,1.2,0.3,1.8,0.4c0.6,0,1.2,0.1,1.7,0c0.6-0.1,1.1-0.2,1.8-0.4
			c0.6-0.2,1.3-0.5,2-0.8c0.5-0.2,0.7-0.3,1-0.5c0.3-0.2,0.6-0.3,0.9-0.5c0.5-0.3,1-0.7,1.4-1c0.4-0.4,0.8-0.8,1.2-1.3
			c0.3-0.5,0.6-1,0.9-1.5c0.3-0.5,0.5-0.9,0.7-1.3c0.4-0.8,0.6-1.2,0.6-1.2s0.1,0.1,0.2,0.3c0.1,0.2,0.3,0.5,0.4,0.9
			c0.2,0.4,0.3,0.9,0.4,1.6c0.1,0.6,0.2,1.3,0.1,2.2c-0.1,0.8-0.3,1.7-0.6,2.7c-0.4,0.9-1,1.9-1.8,2.7c-0.4,0.4-0.8,0.8-1.2,1.1
			c-0.4,0.3-0.9,0.7-1.3,0.9c-0.9,0.6-1.8,1-2.9,1.4c-1.1,0.4-2.3,0.6-3.5,0.6c-1.2,0-2.4-0.3-3.4-0.7c-0.5-0.2-1-0.4-1.4-0.8
			c-0.4-0.3-0.8-0.6-1.2-0.9c-0.7-0.6-1.3-1.3-1.7-1.9c-0.4-0.6-0.8-1.2-1.1-1.8c-0.3-0.6-0.5-1.1-0.6-1.5c-0.1-0.4-0.2-0.8-0.3-1
			C303,279.4,303,279.2,303,279.2z"/>
	</g>
	<g>
		<path class="st3" d="M322.9,273.8c0,0,0.1,0,0.3-0.1c0.2,0,0.4-0.1,0.8-0.2c0.3-0.1,0.8-0.1,1.1-0.2c0.4-0.1,0.7-0.2,1.2-0.4
			c0.2-0.1,0.4-0.2,0.6-0.2c0.2-0.1,0.4-0.1,0.6-0.3c0.2-0.1,0.4-0.2,0.5-0.3c0.1-0.1,0.3-0.2,0.5-0.3c0.2-0.1,0.3-0.2,0.4-0.4
			c0.1-0.1,0.3-0.2,0.4-0.4c0.2-0.2,0.4-0.6,0.7-0.9c0.1-0.2,0.2-0.4,0.3-0.5c0.1-0.2,0.2-0.4,0.3-0.6c0.2-0.4,0.4-0.8,0.6-1.3
			c0.1-0.2,0.2-0.5,0.3-0.7c0.1-0.2,0.1-0.5,0.2-0.7c0.2-0.5,0.3-0.9,0.5-1.4c0.2-0.5,0.3-0.9,0.4-1.3c0.1-0.4,0.2-0.8,0.3-1.1
			c0.1-0.3,0.2-0.6,0.2-0.7c0.1-0.2,0.1-0.3,0.1-0.3s0.1,0.1,0.2,0.2c0.1,0.1,0.4,0.3,0.6,0.5c0.2,0.2,0.5,0.6,0.8,0.9
			c0.3,0.4,0.6,0.8,0.8,1.4c0.2,0.5,0.5,1.1,0.6,1.8c0.1,0.3,0.1,0.7,0.2,1c0,0.4,0,0.7,0,1.1c0,0.4-0.1,0.8-0.1,1.2
			c-0.1,0.4-0.1,0.8-0.3,1.2c-0.1,0.4-0.3,0.8-0.5,1.2c-0.2,0.4-0.4,0.8-0.7,1.2c-0.5,0.8-1.2,1.5-2,2c-0.2,0.1-0.4,0.3-0.6,0.4
			l-0.6,0.3c-0.4,0.2-0.8,0.4-1.3,0.5c-0.4,0.1-0.9,0.2-1.3,0.2c-0.4,0-0.8,0-1.2-0.1c-0.8-0.1-1.4-0.4-2-0.5
			c-0.6-0.3-1.1-0.6-1.5-0.9c-0.4-0.3-0.6-0.6-0.8-0.9c-0.2-0.2-0.4-0.5-0.5-0.6C322.9,273.9,322.9,273.8,322.9,273.8z"/>
	</g>
	<g>
		<path class="st3" d="M333.1,261.7c0,0,0.1,0,0.4-0.1c0.2,0,0.6-0.1,1-0.1c0.4,0,0.9-0.1,1.4-0.2c0.5-0.1,1.1-0.1,1.7-0.3
			c0.3-0.1,0.6-0.1,0.9-0.2c0.3-0.1,0.6-0.2,0.9-0.3c0.6-0.2,1.1-0.5,1.6-0.8c0.5-0.3,1-0.7,1.4-1.1c0.4-0.4,0.9-0.9,1.3-1.4
			l0.3-0.4l0,0c0,0,0.1-0.1,0,0.1l0,0l0,0l0,0l0.1-0.1l0.2-0.3c0.1-0.2,0.1-0.2,0.2-0.3l0.2-0.4c0.3-0.5,0.5-1,0.7-1.6
			c0.4-1.2,0.6-2.7,0.9-4c0.2-1.3,0.5-2.5,0.7-3.3c0.1-0.4,0.2-0.7,0.3-0.9c0.1-0.2,0.1-0.3,0.1-0.3s0.1,0.1,0.2,0.3
			c0.1,0.2,0.3,0.5,0.6,0.8c0.5,0.7,1,1.8,1.5,3.1c0.5,1.3,1,3,1,5c0,1-0.2,2.2-0.7,3.3c-0.1,0.3-0.2,0.5-0.4,0.8
			c-0.1,0.3-0.3,0.6-0.4,0.8L349,260l-0.1,0.1l-0.2,0.2c-0.2,0.2-0.3,0.4-0.5,0.7c-0.7,0.9-1.5,1.7-2.5,2.3c-0.9,0.6-2,1.1-3,1.4
			c-1,0.3-2.1,0.4-3,0.3c-0.5,0-0.9-0.1-1.3-0.2c-0.4-0.1-0.8-0.2-1.2-0.3c-0.7-0.2-1.4-0.6-1.9-0.9c-0.5-0.3-1-0.7-1.3-1
			c-0.3-0.3-0.5-0.5-0.7-0.7C333.2,261.8,333.1,261.7,333.1,261.7z"/>
	</g>
	<g>
		<path class="st3" d="M348.1,252c0,0,0.1-0.1,0.3-0.3c0.2-0.2,0.5-0.4,0.9-0.7c0.4-0.3,0.8-0.7,1.3-1.1c0.5-0.4,1-0.8,1.5-1.3
			c0.3-0.3,0.5-0.5,0.8-0.8c0.3-0.3,0.5-0.5,0.7-0.8c0.5-0.6,0.8-1.1,1.1-1.7c0.2-0.6,0.4-1.2,0.5-1.9c0.1-0.7,0.1-1.6,0.1-2.6
			c0-0.8,0-1.7-0.1-2.4c-0.1-0.8-0.2-1.5-0.4-2.3c-0.4-1.6-1-3.2-1.6-4.6c-0.3-0.7-0.5-1.4-0.7-2c-0.2-0.6-0.4-1.2-0.6-1.6
			c-0.2-0.4-0.3-0.8-0.3-1.1c-0.1-0.3-0.1-0.4-0.1-0.4s0.1,0.1,0.4,0.2c0.2,0.1,0.6,0.3,1,0.5c0.8,0.5,2,1.2,3.2,2.3
			c0.3,0.3,0.6,0.6,0.9,0.9c0.3,0.3,0.6,0.7,0.9,1c0.6,0.8,1.2,1.6,1.8,2.6c0.5,1,1,2.1,1.2,3.4c0.3,1.2,0.3,2.5,0.3,3.7
			c-0.1,1-0.1,2.2-0.4,3.5c-0.3,1.3-0.9,2.6-1.7,3.6c-0.8,1.1-1.8,1.8-2.7,2.3c-0.9,0.6-1.8,0.9-2.7,1.1c-0.8,0.2-1.6,0.3-2.3,0.4
			c-0.7,0.1-1.3,0.1-1.8,0.1c-0.5,0-0.9-0.1-1.1-0.1C348.3,252,348.1,252,348.1,252z"/>
	</g>
	<g>
		<path class="st3" d="M351.4,226.5c0,0,0.1,0,0.3-0.1c0.2,0,0.4-0.1,0.7-0.2c0.3-0.1,0.7-0.2,1.1-0.3c0.4-0.1,0.7-0.2,1.2-0.4
			c0.4-0.1,0.8-0.3,1.2-0.5c0.4-0.1,0.8-0.4,1.2-0.6c0.2-0.1,0.3-0.2,0.5-0.3c0.2-0.1,0.3-0.3,0.5-0.4c0.2-0.1,0.3-0.2,0.5-0.4
			c0.1-0.1,0.3-0.2,0.4-0.4c0.3-0.2,0.5-0.6,0.8-0.8c0.2-0.3,0.6-0.6,0.8-1c0.3-0.3,0.5-0.8,0.8-1.1c0.3-0.4,0.5-0.8,0.7-1.2
			c0.2-0.4,0.4-0.8,0.6-1.1c0.2-0.4,0.4-0.7,0.5-1c0.1-0.3,0.3-0.5,0.4-0.7c0.1-0.2,0.2-0.2,0.2-0.2s0.1,0.1,0.2,0.2
			c0.1,0.1,0.3,0.3,0.5,0.6c0.2,0.3,0.4,0.6,0.6,1c0.2,0.4,0.4,0.9,0.5,1.5c0.1,0.6,0.2,1.2,0.2,1.9c0,0.7,0,1.4-0.3,2.1
			c-0.1,0.8-0.5,1.5-0.9,2.2c-0.5,0.7-1,1.4-1.6,2c-0.3,0.3-0.7,0.6-1,0.8c-0.4,0.3-0.7,0.5-1.1,0.6c-0.8,0.4-1.6,0.6-2.4,0.7
			c-0.8,0-1.6,0.1-2.2-0.1c-0.3-0.1-0.7-0.1-1-0.2c-0.3-0.1-0.6-0.2-0.9-0.3c-0.5-0.2-1-0.5-1.4-0.8c-0.4-0.3-0.7-0.6-0.9-0.8
			c-0.2-0.2-0.4-0.5-0.5-0.6C351.5,226.5,351.4,226.5,351.4,226.5z"/>
	</g>
	<g>
		<path class="st3" d="M234.3,98c0,0-0.1-0.1-0.3-0.2c-0.2-0.1-0.5-0.3-0.9-0.5c-0.4-0.2-0.8-0.5-1.3-0.9c-0.5-0.4-1.1-0.8-1.6-1.4
			c-0.6-0.5-1.1-1.2-1.7-1.9c-0.3-0.4-0.5-0.8-0.8-1.2c-0.2-0.5-0.5-0.9-0.7-1.4c-0.2-0.5-0.4-1-0.5-1.7c-0.1-0.6-0.2-1.3-0.2-1.9
			c0-1.4,0.5-2.9,1.4-4.1c0.9-1.2,2.1-2.1,3.3-2.6c1.4-0.6,2.9-0.7,4.2-0.4c1.3,0.3,2.3,0.9,3.1,1.5c0.8,0.6,1.4,1.3,1.9,1.9
			c0.5,0.6,0.8,1.3,1.1,1.8c0.3,0.6,0.5,1.1,0.6,1.5c0.1,0.4,0.2,0.8,0.3,1c0.1,0.2,0.1,0.4,0.1,0.4s-0.1-0.1-0.3-0.2
			c-0.2-0.1-0.6-0.2-0.9-0.5c-0.8-0.4-1.8-0.9-3-1.5c-0.6-0.3-1.2-0.5-1.8-0.7c-0.6-0.2-1.2-0.2-1.6-0.2c-0.2,0-0.4,0.1-0.6,0.1
			c-0.1,0.1-0.4,0.2-0.4,0.2c-0.4,0.3-0.8,0.6-1,0.9c-0.2,0.3-0.3,0.6-0.4,1c-0.1,0.5-0.1,1.1,0,1.7c0,0.3,0.1,0.7,0.1,1
			c0.1,0.4,0.2,0.7,0.2,1c0.2,0.7,0.3,1.4,0.6,2c0.4,1.4,0.7,2.5,0.9,3.3c0.1,0.4,0.2,0.8,0.3,1C234.3,97.9,234.3,98,234.3,98z"/>
	</g>
	<g>
		<path class="st3" d="M253.9,104c0,0-0.2-0.6-0.5-1.8c-0.3-1.2-0.8-2.9-1.3-5.2c-0.5-2.2-1.2-4.9-1.9-8.1
			c-0.7-3.1-1.4-6.7-2.1-10.6c-0.7-3.9-1.3-8.1-1.7-12.7c-0.2-2.3-0.3-4.6-0.4-7c-0.1-2.4-0.1-4.9,0.1-7.5c0.2-2.6,0.6-5.4,1.7-8.1
			c0.2-0.3,0.3-0.7,0.4-1c0.1-0.3,0.3-0.6,0.5-0.9c0.4-0.7,0.7-1.3,1.1-1.9c0.8-1.2,1.7-2.3,2.7-3.4c1.9-2.1,4.2-4,6.9-5.4
			c2.7-1.5,5.9-2.2,8.8-2.2c2.9-0.1,5.9,0.2,8.8,1.3c0.7,0.3,1.5,0.6,2.2,1c0.4,0.2,0.7,0.4,1.1,0.6l0.3,0.2l0.2,0.1l0.1,0.1
			l0.4,0.3c0.7,0.6,1.3,1.1,1.8,1.7c0.5,0.6,1,1.2,1.4,1.8c1.7,2.5,2.7,5.1,3.5,7.6c0.8,2.5,1.5,5,2,7.5c1.1,4.9,1.7,9.9,1.5,14.6
			c-0.1,4.7-1,9.1-1.9,12.9c-0.9,3.9-2,7.3-2.9,10.4c-0.9,3.1-1.7,5.7-2.3,7.9c-1.3,4.4-2,6.9-2,6.9s0.2-2.6,0.8-7.2
			c0.3-2.3,0.7-5,1.2-8.2c0.5-3.1,1.1-6.7,1.7-10.5c0.6-3.8,1-8,0.8-12.3c-0.2-4.3-1-8.8-2.2-13.4c-0.6-2.3-1.3-4.6-2.2-6.9
			c-0.9-2.2-1.8-4.4-3-6.2c-0.3-0.4-0.6-0.8-1-1.2c-0.3-0.4-0.7-0.7-1-0.9l-0.4-0.3l-0.1-0.1c0,0-0.1-0.1,0,0l0,0l-0.2-0.1
			c-0.2-0.1-0.4-0.2-0.6-0.4c-0.4-0.2-0.9-0.4-1.4-0.6c-2-0.7-4.3-1-6.6-0.9c-2.3,0.1-4.4,0.5-6.3,1.5c-1.9,1-3.8,2.5-5.3,4.1
			c-0.8,0.8-1.5,1.7-2.1,2.6c-0.3,0.4-0.6,0.9-0.9,1.4c-0.1,0.2-0.3,0.5-0.4,0.8c-0.1,0.2-0.2,0.5-0.3,0.7c-0.9,1.9-1.3,4.1-1.6,6.4
			c-0.3,2.3-0.3,4.6-0.4,7c-0.1,2.3-0.1,4.6,0,6.8c0.1,4.4,0.4,8.6,0.7,12.5c0.3,3.9,0.6,7.5,0.9,10.7c0.3,3.2,0.6,5.9,0.8,8.2
			C253.7,101.4,253.9,104,253.9,104z"/>
	</g>
	<g>
		<path class="st3" d="M287.3,79.7c0,0,0-0.1,0.1-0.3c0.1-0.2,0.1-0.5,0.2-0.9c0.1-0.3,0.3-0.8,0.6-1.3c0.3-0.5,0.6-1,1.1-1.5
			c0.5-0.5,1.1-1,1.9-1.5c0.8-0.4,1.8-0.7,3-0.7c1.2,0,2.5,0.4,3.5,1.2c1,0.7,1.8,1.8,2.3,2.8l0.2,0.5l0.1,0.4
			c0.1,0.3,0.2,0.5,0.2,0.8c0.1,0.5,0.2,1.1,0.2,1.6c0,1-0.1,2-0.3,2.8c-0.4,1.7-1.2,3.1-2,4.1c-0.8,1-1.6,1.8-2.2,2.2
			c-0.3,0.2-0.6,0.4-0.7,0.5c-0.2,0.1-0.3,0.2-0.3,0.2s0-0.1,0-0.3c0-0.2,0-0.5,0-0.9c0-0.7,0-1.8,0-2.9c0-0.3,0-0.6,0-0.9
			c0-0.3,0-0.6,0-0.9c0-0.6,0-1.2-0.1-1.8c-0.1-0.6-0.1-1.1-0.2-1.6c-0.1-0.2-0.1-0.5-0.2-0.7c0-0.1-0.1-0.2-0.1-0.3l0-0.1
			c0,0,0,0,0-0.1c-0.2-0.5-0.3-0.6-0.5-0.8c-0.1-0.2-0.3-0.3-0.5-0.5c-0.2-0.1-0.6-0.2-1.1-0.3c-0.5,0-1,0-1.5,0.1
			c-0.5,0.1-1,0.2-1.5,0.3c-0.4,0.1-0.9,0.2-1.2,0.3c-0.3,0.1-0.7,0.2-0.8,0.3C287.4,79.7,287.3,79.7,287.3,79.7z"/>
	</g>
	<g>
		<path class="st3" d="M297.2,86.6c0,0,0-0.1,0.1-0.3c0.1-0.2,0.1-0.5,0.2-0.8c0.2-0.3,0.3-0.8,0.7-1.2c0.3-0.4,0.7-0.9,1.5-1.4
			c0.3-0.2,0.8-0.4,1.3-0.5c0.5-0.1,1.1-0.1,1.7,0c1.2,0.2,2.2,0.9,2.9,1.7c0.7,0.8,1.2,1.6,1.6,2.5l0.2,0.6
			c0.1,0.2,0.2,0.5,0.2,0.8c0.1,0.5,0.2,1,0.2,1.5c0,1-0.1,2-0.4,2.8c-0.2,0.8-0.5,1.6-0.9,2.3c-0.7,1.3-1.5,2.4-2.2,3.3
			c-0.8,0.9-1.5,1.5-2.1,2c-0.3,0.2-0.5,0.4-0.7,0.5c-0.2,0.1-0.3,0.2-0.3,0.2s0-0.1,0-0.3c0-0.2-0.1-0.5-0.1-0.8
			c-0.1-0.7-0.1-1.7,0-2.8c0.1-1.1,0.2-2.4,0.4-3.6c0.1-0.6,0.2-1.2,0.2-1.8c0.1-0.6,0.1-1.1,0.1-1.5c0-0.2,0-0.4,0-0.6
			c0-0.1,0-0.1,0-0.2l-0.1-0.3l0-0.1l0,0l0,0l0,0c0,0,0.1,0.2,0,0.1l0,0c-0.1-0.5-0.2-0.9-0.3-1.2c-0.1-0.3-0.1-0.5-0.1-0.6
			c0-0.2-0.1-0.4-0.5-0.5c-0.3-0.1-0.8-0.1-1.2,0c-0.4,0-0.8,0.1-1.1,0.2c-0.3,0.1-0.6,0.2-0.8,0.2
			C297.3,86.5,297.2,86.6,297.2,86.6z"/>
	</g>
	<g>
		<path class="st3" d="M338.1,162c0,0,0.3,0.1,0.9,0.2c0.6,0.2,1.5,0.4,2.6,0.9c1.1,0.5,2.4,1.1,3.9,1.9c1.4,0.9,3,1.9,4.6,3.1
			c3.3,2.5,6.7,5.9,9.8,9.9c1.6,2,3.1,4.1,4.6,6.4c0.4,0.5,0.7,1.1,1.1,1.6c0.4,0.6,0.7,1.2,1.1,1.8c0.7,1.2,1.4,2.4,2,3.6
			c1.2,2.5,2.3,5,3.2,7.6c0.9,2.6,1.5,5.1,2,7.6c0.3,1.3,0.5,2.5,0.7,3.7c0.2,1.2,0.4,2.4,0.5,3.5c0.3,2.3,0.4,4.5,0.5,6.5
			c0.1,2,0.1,3.9,0.1,5.5c0,1.6,0,3.1-0.1,4.2c0,1.2-0.1,2.1-0.2,2.7c-0.1,0.6-0.1,1-0.1,1s-0.1-0.3-0.3-0.9
			c-0.2-0.6-0.4-1.5-0.7-2.6c-0.5-2.3-1.3-5.5-2.2-9.3c-0.5-1.9-0.9-4-1.5-6.2c-0.3-1.1-0.6-2.2-0.9-3.3c-0.3-1.1-0.6-2.3-1-3.4
			c-0.3-1.2-0.7-2.3-1.1-3.5c-0.2-0.6-0.4-1.2-0.6-1.7c-0.2-0.6-0.4-1.2-0.6-1.8c-0.9-2.3-1.9-4.6-3-6.9c-0.5-1.1-1.2-2.3-1.8-3.4
			l-0.9-1.6c-0.3-0.6-0.7-1.1-1-1.7c-1.3-2.1-2.6-4.3-4-6.3c-2.7-4-5.4-7.6-7.9-10.5c-1.3-1.5-2.5-2.7-3.6-3.8
			c-1.2-1.1-2.2-2-3.1-2.7c-0.5-0.3-0.9-0.6-1.2-0.9c-0.4-0.3-0.7-0.5-0.9-0.7C338.4,162.2,338.1,162,338.1,162z"/>
	</g>
	<g>
		<path class="st3" d="M375.3,233.8c0,0,0.7,0.6,2,1.7c0.6,0.6,1.4,1.3,2.3,2.1c0.9,0.8,2,1.8,3.1,2.9c1.1,1.1,2.4,2.3,3.8,3.7
			c1.3,1.4,2.8,2.9,4.3,4.5c1.5,1.6,3,3.5,4.7,5.4c1.5,2,3.2,4,4.8,6.3c3.2,4.5,6.4,9.7,8.6,15.9c2.4,6.1,3.4,13.1,3.3,20.1
			c0,1.7-0.1,3.5-0.2,5.3c-0.1,1.8-0.2,3.6-0.4,5.3c-0.4,3.6-1,7.2-1.8,10.8c-0.8,3.6-1.9,7.2-3.2,10.7c-0.3,1-0.6,1.7-1,2.6
			c-0.4,0.9-0.7,1.8-1.1,2.6c-0.8,1.7-1.6,3.4-2.6,5.1c-1,1.7-2.1,3.3-3.5,4.9c-0.4,0.4-0.7,0.8-1.1,1.1c-0.2,0.2-0.4,0.4-0.6,0.5
			l-0.3,0.3l-0.2,0.1l-0.2,0.2l-0.5,0.4l-0.7,0.5c-0.5,0.3-1,0.6-1.5,0.9c-2,1.1-4.4,1.5-6.4,1.6c-1,0.1-2,0-2.9,0
			c-1,0-2-0.1-3.1-0.3c-1.1-0.2-2.2-0.5-3.4-1c-0.6-0.3-1.2-0.6-1.7-1.1c-0.3-0.2-0.5-0.5-0.8-0.7c-0.1-0.1-0.2-0.3-0.3-0.4
			l-0.2-0.2c-0.1-0.1,0,0.1-0.2-0.2l0-0.1c-0.1-0.2-0.7-1.2-0.8-1.8c-0.2-0.6-0.3-1.2-0.4-1.8c-0.2-1.2-0.1-2.3,0-3.3
			c0.3-2.1,0.9-4,1.6-5.8c0.2-0.4,0.4-0.9,0.6-1.3l0.2-0.4l0.1-0.3l0.3-0.6c0.4-0.8,0.9-1.6,1.3-2.4c3.6-6,7.7-11.2,10.4-16.5
			c1.3-2.6,2.2-5.3,2.8-8c0.5-2.7,0.6-5.4,0.4-8c-0.1-2.6-0.5-5.2-0.9-7.6c-0.4-2.4-0.9-4.7-1.4-6.8c-1.1-4.3-2.2-7.9-3.2-10.9
			c-1.1-3-2-5.3-2.7-6.8c-0.3-0.8-0.7-1.4-0.8-1.7c-0.2-0.4-0.3-0.6-0.3-0.6s0.1,0.2,0.4,0.6c0.2,0.4,0.6,0.9,1.1,1.6
			c0.9,1.4,2.2,3.6,3.5,6.5c1.4,2.9,2.9,6.5,4.3,10.7c1.4,4.2,2.8,9.1,3.5,14.7c0.3,2.8,0.5,5.8,0.1,8.9c-0.4,3.1-1.3,6.3-2.7,9.3
			c-2.7,6-6.6,11.5-9.8,17.2c-0.4,0.7-0.8,1.4-1.1,2.1l-0.3,0.6l-0.1,0.3l0,0.1c0-0.1,0,0,0,0l-0.1,0.1c-0.2,0.4-0.3,0.7-0.4,1.1
			c-0.6,1.4-1,2.9-1.1,4.3c-0.1,0.7-0.1,1.4,0,1.9c0.1,0.3,0.1,0.5,0.2,0.8l0.1,0.2c0,0,0,0,0,0.1c0,0,0.1,0.2,0.2,0.4l0,0.1
			c-0.2-0.2,0-0.1-0.1-0.1l0,0c0,0,0,0.1,0.1,0.1c0.1,0.1,0.1,0.1,0.2,0.2c0.1,0.1,0.3,0.2,0.5,0.3c0.5,0.2,1.1,0.4,1.8,0.5
			c0.7,0.1,1.5,0.2,2.3,0.2c0.9,0,1.7,0,2.5,0c1.5-0.1,2.8-0.4,4-1c0.3-0.2,0.6-0.3,0.9-0.5l0.4-0.3l0.5-0.4l0.4-0.3
			c0.1-0.1,0.3-0.3,0.4-0.4c0.3-0.3,0.5-0.5,0.8-0.8c1-1.2,2-2.5,2.8-4c0.9-1.4,1.6-3,2.4-4.5c0.4-0.8,0.7-1.6,1-2.4
			c0.3-0.8,0.7-1.7,1-2.5c1.2-3.3,2.3-6.6,3.1-10c1.6-6.7,2.6-13.5,2.8-20.2c0.2-6.6-0.3-12.8-2.2-18.5c-1.8-5.7-4.5-10.9-7.3-15.4
			c-1.3-2.3-2.9-4.4-4.2-6.5c-1.4-2-2.8-3.9-4.1-5.6c-1.4-1.7-2.6-3.3-3.8-4.8c-1.2-1.5-2.3-2.8-3.4-4c-2-2.4-3.7-4.3-4.8-5.6
			C375.9,234.5,375.3,233.8,375.3,233.8z"/>
	</g>
	<g>
		<path class="st3" d="M158.1,233c0,0-0.5,0.3-1.5,0.8c-1,0.5-2.4,1.4-4.2,2.5c-1.7,1.2-3.8,2.7-5.9,4.7c-2.1,2-4.2,4.4-6.1,7.4
			c-1.9,2.9-3.5,6.3-4.9,10.1c-0.7,1.9-1.3,3.9-1.9,5.9c-0.1,0.5-0.3,1.1-0.4,1.6c-0.1,0.5-0.3,1-0.4,1.6c-0.3,1-0.5,2.1-0.8,3.2
			c-1,4.3-1.6,8.8-2,13.4c-0.4,4.6-0.4,9.3,0,14c0.3,4.7,1.1,9.2,2.3,13.7c1.2,4.4,2.7,8.7,4.6,12.6c0.9,2,2,3.8,3.1,5.6
			c1.1,1.7,2.3,3.3,3.6,4.4c0.6,0.5,1.3,0.9,1.7,1c0.2,0,0.2,0,0.2,0c0.1,0,0.3-0.1,0.5-0.4c0.4-0.5,0.9-1.2,1.3-2
			c0.3-0.7,0.7-1.5,0.9-2.3c0.5-1.6,0.9-3.3,1.3-4.9c0.4-1.6,0.6-3.1,0.9-4.6c0.5-2.9,0.9-5.4,1.2-7.5c0.3-2.1,0.6-3.8,0.8-4.9
			c0.2-1.1,0.3-1.7,0.3-1.7s0.1,2.4,0.1,6.7c0,2.1,0,4.7-0.2,7.7c-0.2,3-0.3,6.3-1.1,10.1c-0.2,1-0.5,1.9-0.8,2.9
			c-0.4,0.9-0.8,1.9-1.6,3c-0.4,0.5-0.9,1.1-1.7,1.5c-0.8,0.5-1.9,0.6-2.7,0.5c-1.6-0.2-2.8-0.9-3.8-1.6c-2-1.5-3.6-3.3-5-5.1
			c-1.4-1.9-2.6-3.9-3.7-6c-2.2-4.2-4.1-8.7-5.5-13.4c-1.4-4.8-2.3-9.8-2.7-14.8c-0.3-5-0.3-10,0.2-14.9c0.5-4.9,1.4-9.7,2.6-14.2
			c0.3-1.1,0.6-2.2,1-3.3c0.2-0.6,0.3-1.1,0.5-1.6c0.2-0.5,0.4-1,0.5-1.6c0.8-2.1,1.6-4.2,2.5-6.1c1.7-3.9,3.9-7.5,6.3-10.4
			c2.3-3,4.9-5.3,7.4-7.1c2.4-1.9,4.8-3,6.7-4c2-0.9,3.6-1.5,4.7-1.8C157.5,233.2,158.1,233,158.1,233z"/>
	</g>
	<g>
		<path class="st3" d="M242.3,88.1c0,0-2.1-1.7-4.5-4.8c-1.2-1.5-2.5-3.4-3.7-5.6c-0.6-1.1-1.2-2.3-1.6-3.6
			c-0.2-0.7-0.4-1.4-0.6-2.1l-0.1-0.3l-0.1-0.3l-0.1-0.5c-0.1-0.4-0.1-0.8-0.1-1.2c-0.1-1.5,0-3.3,0.7-5c0.7-1.7,2.2-3.2,3.6-3.9
			c1.4-0.8,2.7-1.1,4-1.3c0.6-0.1,1.2-0.1,1.8-0.2l0.2,0c0.1,0,0.1,0,0.2,0l0.4,0c0.3,0,0.6,0,0.9,0c1.2,0.1,2.3,0.5,3.1,1.1
			c0.8,0.6,1.3,1.3,1.6,1.9c0.3,0.6,0.4,1,0.4,1.3c0.1,0.3,0.1,0.5,0.1,0.5s-0.1-0.1-0.4-0.3c-0.2-0.2-0.6-0.5-1-0.7
			c-0.5-0.3-1-0.5-1.6-0.5c-0.6,0-1.2,0.1-2,0.3c-0.2,0.1-0.4,0.1-0.6,0.2l-0.3,0.1c0,0-0.2,0-0.2,0.1l-0.2,0.1
			c-0.4,0.2-0.9,0.3-1.3,0.5c-0.9,0.4-1.7,0.9-2.3,1.4c-0.6,0.5-0.9,1-1.1,1.6c-0.2,0.6-0.3,1.5-0.2,2.4c0,0.3,0,0.5,0.1,0.7
			c0,0.1,0,0.3,0.1,0.4l0,0.2l0,0.2c0.1,0.5,0.2,1,0.3,1.6c0.3,1.1,0.6,2.1,0.9,3.2c0.7,2.2,1.4,4.3,1.9,6.1
			c0.5,1.8,0.9,3.4,1.1,4.6c0.1,0.6,0.2,1,0.2,1.3C242.3,87.9,242.3,88.1,242.3,88.1z"/>
	</g>
	<path class="st7" d="M204.6,421.9c-1.9-1.3-5.2-2.9-8-3.5c-2.8-0.6-5.1-0.3-6.8,0.9c-1.7,1.2-2.9,3.2-3,5.1c-0.1,1.9,0.8,3.7,2.4,5
		c1.6,1.2,3.9,1.8,6.2,2.1c2.3,0.3,4.8,0.3,6.6-0.2c1.8-0.5,3-1.4,3.8-2.5c0.8-1.1,1.3-2.4,1.3-3.5
		C207.1,424.2,206.5,423.2,204.6,421.9z"/>
	<path class="st7" d="M206.7,423.8c7.7-5,11.7-4.8,14.6-3.6c2.9,1.2,4.8,3.2,5.5,5.2c0.7,1.9,0.1,3.8-0.9,5.2
		c-1.1,1.4-2.6,2.4-4.3,3c-1.7,0.5-3.5,0.6-5.4,0.3c-2-0.2-4.1-0.7-5.9-1.8c-1.8-1-3.4-2.6-3.9-3.8"/>
	<path class="st7" d="M226.7,429.2c3.8,3.8,6.8,4.3,9.3,4.3c2.5,0,4.3-0.4,5.7-1.4s2.3-2.7,2.2-4.5c-0.1-1.9-1.2-3.9-2.6-5.3
		c-1.3-1.4-2.9-2.2-4.2-2.6c-1.3-0.4-2.4-0.5-3.8,0.1c-1.5,0.6-3.3,1.8-6.2,6.1"/>
	<line class="st7" x1="225.8" y1="396.4" x2="220" y2="419.8"/>
	<line class="st7" x1="236.8" y1="398" x2="232.7" y2="419.9"/>
	<path class="st7" d="M322.3,425.6c-7-6-11.5-6-14.2-4.8c-2.7,1.2-3.6,3.6-3.4,6.1c0.1,2.5,1.3,5.1,2.9,6.4c1.6,1.3,3.7,1.4,6.5,0.6
		s6.4-2.3,8-6.4"/>
	<line class="st7" x1="312.1" y1="396.2" x2="318.8" y2="422.9"/>
	<line class="st7" x1="323.1" y1="395.2" x2="329.1" y2="420.6"/>
	<path class="st7" d="M243.4,430c5.4-4,7.9-3.3,9.4-3.2c1.5,0.1,2-0.4,2-1.3c0-0.9-0.5-2.2-2-3.3c-1.5-1.1-4.1-2-11.5-0.1"/>
	<path class="st7" d="M306,422.2c-7.3-1-9.5-0.5-10.7,0.1c-1.2,0.6-1.4,1.4-1.2,2c0.2,0.6,0.9,0.9,1.6,1.1s1.6,0.1,3.4,0.3
		c1.8,0.3,4.4,0.9,5.9,3.8"/>
	<path class="st7" d="M342.1,425.1c-7.9-5.5-11.5-5.2-14.4-4.1c-2.9,1.1-5.1,3-5.6,5c-0.5,2,0.7,4.2,2.4,5.6
		c1.8,1.4,4.1,2.1,7.6,1.7c3.5-0.4,8.2-1.8,10.3-6"/>
	<path class="st7" d="M342.2,424.2c0.5-1.3,1.7-2.3,2.1-2.7c2-1.4,4.2-2.2,6.2-2.6c3-0.7,5.3-0.6,6.9-0.1c1.6,0.5,2.5,1.5,3.2,2.6
		c0.7,1.1,1.3,2.3,1.4,3.4c0.1,1.1-0.3,2.1-1.1,2.9c-0.8,0.8-2.1,1.4-3.7,1.9c-1.6,0.5-3.5,1-6.1,1c-2,0-4.5-0.4-7-1.5
		C342.4,428.2,341.6,426.4,342.2,424.2z"/>
	<g>
		<path class="st3" d="M376.6,343.7c0,0-0.5,0.4-1.4,1.1c-0.9,0.7-2.2,1.8-4,3.1c-1.8,1.3-3.9,2.9-6.4,4.6c-2.5,1.8-5.4,3.6-8.6,5.6
			c-3.2,2-6.7,4.1-10.6,6.1c-3.8,2-7.9,4.1-12.2,6.1c-2.2,1-4.4,2-6.6,2.9c-1.1,0.5-2.3,0.9-3.4,1.4c-1.2,0.5-2.3,0.9-3.5,1.3
			c-4.7,1.7-9.6,3.3-14.7,4.3c-2.6,0.5-5.1,0.9-7.7,1.1c-2.5,0.3-5.1,0.4-7.6,0.5c-5,0.2-10,0-14.7-0.4c-4.8-0.4-9.4-1.1-13.7-2.2
			c-2.2-0.5-4.2-1.1-6.2-1.9c-1-0.4-1.9-0.7-2.9-1.1c-0.9-0.4-1.8-0.8-2.7-1.2c-3.5-1.7-6.4-3.6-9-5.4c-2.5-1.8-4.6-3.4-6.3-4.8
			c-1.7-1.4-3-2.6-3.9-3.3c-0.9-0.8-1.3-1.2-1.3-1.2s2.1,1.3,5.9,3.6c1.9,1.1,4.2,2.4,6.8,3.9c2.7,1.4,5.7,2.9,9.1,4.2
			c0.9,0.3,1.7,0.6,2.6,0.9c0.9,0.3,1.8,0.5,2.8,0.8c1.9,0.5,3.9,1,5.9,1.3c4.1,0.7,8.5,1.1,13.1,1.3c4.6,0.2,9.3,0.1,14.1-0.1
			c2.4-0.1,4.8-0.4,7.2-0.6c2.4-0.3,4.8-0.6,7.1-1.1c4.7-0.9,9.4-2.3,13.9-3.9c1.1-0.4,2.3-0.8,3.4-1.2c1.1-0.4,2.3-0.8,3.4-1.2
			c2.2-0.8,4.4-1.7,6.6-2.6c4.3-1.8,8.4-3.5,12.3-5.3c3.9-1.8,7.5-3.5,10.9-5.1c3.3-1.7,6.4-3.2,9.1-4.6c1.3-0.7,2.6-1.4,3.8-2
			c1.2-0.6,2.2-1.2,3.2-1.7C374.4,344.8,376.6,343.7,376.6,343.7z"/>
	</g>
	<g>
		<path class="st3" d="M283.8,379.2c0,0,1.2,1,3.4,2.6c1.1,0.8,2.4,1.8,3.9,2.9c1.5,1.1,3.3,2.2,5.2,3.4c2,1.1,4.1,2.2,6.5,3.2
			c2.3,0.9,4.8,1.6,7.5,2c1.3,0.2,2.6,0.3,4,0.3c1.3,0,2.7-0.1,4-0.3c1.3-0.2,2.7-0.6,4-1c0.3-0.1,0.8-0.2,1-0.3
			c0.3-0.1,0.6-0.2,1-0.4c0.6-0.3,1.3-0.5,1.9-0.8c2.5-1.2,4.8-2.9,7-4.8l0.8-0.7l0.8-0.8c0.5-0.5,1-0.9,1.5-1.5c1-1,2-2,2.9-3.1
			c1.9-2.1,3.6-4.2,5.2-6.3c1.6-2.1,3.1-4.1,4.5-6c1.4-1.9,2.6-3.6,3.7-5.1c1.1-1.5,2.1-2.9,2.9-4c1.6-2.2,2.5-3.5,2.5-3.5
			s-0.1,0.4-0.4,1.1c-0.3,0.7-0.6,1.7-1.1,3c-0.5,1.3-1.1,2.8-1.9,4.6c-0.8,1.8-1.7,3.7-2.7,5.8c-2.1,4.2-4.9,9-8.6,13.8
			c-0.9,1.2-1.9,2.4-3,3.5c-0.5,0.6-1.1,1.2-1.6,1.7l-0.8,0.8l-0.9,0.8c-2.4,2.2-5.1,4.3-8.2,5.8c-0.8,0.4-1.6,0.7-2.4,1
			c-0.4,0.1-0.8,0.3-1.2,0.4c-0.5,0.2-0.7,0.2-1.2,0.4c-1.6,0.5-3.3,0.9-5,1.1c-3.4,0.4-6.8,0.1-9.9-0.6c-3-0.7-5.9-1.8-8.4-3.1
			c-2.5-1.3-4.7-2.9-6.5-4.4c-1.9-1.5-3.4-3.1-4.8-4.5c-1.3-1.4-2.4-2.7-3.3-3.8c-0.9-1.1-1.5-2-1.9-2.6
			C284,379.5,283.8,379.2,283.8,379.2z"/>
	</g>
	<g>
		<path class="st3" d="M198.2,364.7c0,0,0.2,0.3,0.5,1c0.2,0.3,0.3,0.7,0.6,1.2c0.2,0.4,0.5,0.9,0.8,1.5c0.3,0.6,0.7,1.2,1.1,1.8
			c0.4,0.7,0.8,1.4,1.3,2.1c1,1.5,2.2,3.1,3.6,4.7c2.7,3.3,6.3,6.8,10.5,10.1c0.5,0.4,1.1,0.8,1.6,1.2l0.8,0.6l0.9,0.6
			c1.1,0.8,2.2,1.5,3.4,2.3c1.1,0.7,2.3,1.3,3.5,1.8c1.2,0.5,2.3,0.8,3.6,1.1c2.6,0.5,5.2,0.6,7.9,0.3c2.7-0.2,5.5-0.7,8.1-1.1
			c2.6-0.5,5-1.2,7.1-2.1c2.2-0.9,4.2-2,5.9-3.2c0.4-0.3,0.9-0.6,1.3-0.9c0.4-0.3,0.8-0.6,1.2-0.9c0.8-0.6,1.4-1.3,2.1-1.8
			c1.2-1.2,2.3-2.3,3.2-3.3c0.9-1,1.5-1.8,1.9-2.3c0.4-0.5,0.7-0.8,0.7-0.8s-0.1,0.3-0.4,1c-0.3,0.6-0.6,1.6-1.2,2.8
			c-0.6,1.2-1.4,2.6-2.4,4.2c-1.1,1.5-2.3,3.2-4.1,4.9c-1.7,1.6-3.7,3.2-6.1,4.6c-2.4,1.3-5.1,2.4-7.9,3.2c-1.4,0.4-2.8,0.7-4.3,1
			c-1.4,0.3-2.9,0.6-4.5,0.7c-3,0.4-6.4,0.4-9.6-0.2c-1.6-0.3-3.3-0.8-4.8-1.5c-1.6-0.7-2.9-1.5-4.3-2.4c-1.3-0.9-2.5-1.8-3.7-2.7
			l-0.8-0.7l-0.8-0.7c-0.6-0.5-1.1-1-1.6-1.5c-4.2-3.9-7.6-8.2-9.9-12.2c-0.6-1-1.1-2-1.6-2.9c-0.4-1-0.9-1.8-1.2-2.7
			c-0.3-0.9-0.7-1.7-0.9-2.4c-0.2-0.8-0.5-1.5-0.6-2.1c-0.4-1.3-0.5-2.3-0.6-3C198.2,365.1,198.2,364.7,198.2,364.7z"/>
	</g>
</g>
</svg>
